<svg xmlns="http://www.w3.org/2000/svg" id="headphones_copy" width="26.94" height="26.94" viewBox="0 0 26.94 26.94">
  <defs>
    <style>
      .cls-1{fill:#52d03e}
    </style>
  </defs>
  <path id="Path_3709"
        d="M24.835 12.212v-.847a11.365 11.365 0 0 0-19.4-8.036A11.291 11.291 0 0 0 2.1 11.365v.847A2.9 2.9 0 0 0 0 15v4.209A2.9 2.9 0 0 0 2.894 22.1h3.157a.789.789 0 0 0 .789-.789v-9.946a6.63 6.63 0 0 1 13.26 0v9.945a.789.789 0 0 0 .789.789H22.2v.894a.79.79 0 0 1-.789.789h-5.183A2.371 2.371 0 0 0 14 22.2h-1.056a2.368 2.368 0 1 0 0 4.736H14a2.371 2.371 0 0 0 2.232-1.579h5.187a2.37 2.37 0 0 0 2.368-2.368V22.1h.263a2.9 2.9 0 0 0 2.894-2.894V15a2.9 2.9 0 0 0-2.1-2.784zM14 25.361h-1.056a.789.789 0 0 1 0-1.579H14a.789.789 0 1 1 0 1.579zm-8.738-4.84H2.894a1.317 1.317 0 0 1-1.315-1.315V15a1.317 1.317 0 0 1 1.315-1.32h2.368zM13.47 3.157a8.218 8.218 0 0 0-8.208 8.208v.735H3.683v-.737a9.787 9.787 0 1 1 19.574 0v.737h-1.579v-.737a8.218 8.218 0 0 0-8.208-8.206zm11.891 16.048a1.317 1.317 0 0 1-1.315 1.315h-2.368v-6.84h2.368A1.317 1.317 0 0 1 25.361 15z"
        class="cls-1"/>
  <path id="Path_3710" d="M167.6 190.34a.789.789 0 0 0 1.295-.606v-1.842h.263a1.844 1.844 0 0 0 1.842-1.841v-4.209a1.844 1.844 0 0 0-1.844-1.842h-6.314a1.844 1.844 0 0 0-1.842 1.842v4.209a1.844 1.844 0 0 0 1.842 1.842h1.819zm-5.02-4.289v-4.209a.263.263 0 0 1 .263-.263h6.314a.263.263 0 0 1 .263.263v4.209a.263.263 0 0 1-.263.263H168.1a.789.789 0 0 0-.789.789v.946l-1.863-1.552a.789.789 0 0 0-.505-.183h-2.1a.263.263 0 0 1-.264-.263z" class="cls-1" transform="translate(-152.529 -170.529)"/>
  <path id="Path_3711" d="M223.894 241.579a.789.789 0 0 0 0-1.579h-2.1a.789.789 0 0 0 0 1.579z" class="cls-1" transform="translate(-209.372 -227.372)"/>
</svg>
