<svg width="468" height="324" viewBox="0 0 468 324" fill="none" xmlns="http://www.w3.org/2000/svg">
  <path fill-rule="evenodd" clip-rule="evenodd"
        d="M165.61 194.926L199.866 101.507H179.933L154.388 175.817L128.705 101.507H108.632L142.888 194.926H165.645H165.61ZM212.273 108.865C214.503 110.922 217.256 111.933 220.567 111.933C223.877 111.933 226.596 110.922 228.721 108.865C230.952 106.737 232.067 104.087 232.067 100.984C232.067 97.8802 230.952 95.2649 228.721 93.2075C226.596 91.0804 223.877 89.9994 220.567 89.9994C217.256 89.9994 214.503 91.0804 212.273 93.2075C210.147 95.2649 209.067 97.8454 209.067 100.984C209.067 104.122 210.147 106.737 212.273 108.865ZM229.802 194.926V120.756H211.088V194.926H229.802ZM260.329 192.904C265.139 195.031 270.575 196.112 276.639 196.112C282.703 196.112 287.651 195.17 292.007 193.287C296.468 191.334 299.848 188.649 302.183 185.267C304.588 181.884 305.807 178.049 305.807 173.759C305.703 168.843 304.379 164.937 301.8 161.973C299.291 158.939 296.329 156.708 292.844 155.278C289.359 153.848 284.968 152.453 279.601 151.128C274.339 149.803 270.471 148.513 267.961 147.258C265.452 145.932 264.233 144.015 264.233 141.504C264.233 139.272 265.139 137.529 266.916 136.273C268.798 135.018 271.411 134.39 274.792 134.39C278.451 134.39 281.343 135.297 283.504 137.075C285.734 138.784 286.989 141.085 287.233 144.049H305.145C304.623 136.552 301.695 130.624 296.433 126.23C291.171 121.767 284.131 119.535 275.28 119.535C269.321 119.535 264.093 120.511 259.632 122.464C255.276 124.417 251.861 127.102 249.457 130.485C247.122 133.867 245.972 137.633 245.972 141.713C245.972 146.7 247.226 150.675 249.701 153.639C252.279 156.568 255.311 158.765 258.796 160.195C262.351 161.624 266.916 163.019 272.457 164.344C277.824 165.774 281.692 167.099 284.097 168.354C286.606 169.505 287.825 171.284 287.825 173.725C287.825 175.956 286.815 177.77 284.759 179.199C282.807 180.629 280.019 181.326 276.465 181.326C272.91 181.326 269.739 180.385 267.23 178.502C264.825 176.619 263.431 174.248 263.083 171.423H244.229C244.508 175.991 246.007 180.141 248.794 183.872C251.652 187.603 255.485 190.602 260.295 192.834L260.329 192.904ZM320.793 137.633C317.865 143.422 316.367 150.082 316.367 157.579C316.367 165.077 317.83 171.911 320.793 177.804C323.824 183.593 327.867 188.126 332.955 191.334C338.113 194.543 343.828 196.147 350.066 196.147C355.607 196.147 360.451 195.031 364.633 192.799C368.919 190.463 372.265 187.568 374.669 184.081V194.926H393.523V120.756H374.669V131.321C372.16 127.939 368.815 125.114 364.633 122.883C360.52 120.651 355.711 119.535 350.17 119.535C343.828 119.535 338.078 121.104 332.92 124.208C327.832 127.346 323.79 131.81 320.758 137.598L320.793 137.633ZM372.021 146.211C373.798 149.42 374.704 153.29 374.704 157.858C374.704 162.426 373.798 166.332 372.021 169.645C370.243 172.853 367.839 175.364 364.807 177.142C361.775 178.851 358.534 179.688 355.049 179.688C351.564 179.688 348.463 178.781 345.431 177.002C342.504 175.224 340.064 172.678 338.217 169.366C336.44 165.983 335.534 162.043 335.534 157.579C335.534 153.116 336.44 149.28 338.217 146.072C340.099 142.759 342.504 140.283 345.431 138.575C348.358 136.866 351.599 136.029 355.049 136.029C358.499 136.029 361.775 136.936 364.807 138.714C367.839 140.423 370.243 142.899 372.021 146.211Z"
        fill="black"/>
  <path d="M88.2451 111.933C84.9344 111.933 82.1813 110.922 79.951 108.865C77.8252 106.737 76.7449 104.122 76.7449 100.984C76.7449 97.8454 77.8252 95.265 79.951 93.2076C82.1813 91.0804 84.9344 89.9994 88.2451 89.9994C91.5557 89.9994 94.2739 91.0804 96.3997 93.2076C98.6301 95.265 99.7452 97.8803 99.7452 100.984C99.7452 104.087 98.6301 106.737 96.3997 108.865C94.2739 110.922 91.5557 111.933 88.2451 111.933Z" fill="black"/>
  <path d="M97.48 120.756V194.926H78.7661V120.756H97.48Z" fill="black"/>
  <path d="M38.7593 285.695H205.965V274.536H38.7593V285.695Z" fill="#0E036F"/>
  <path d="M267.962 41.3893H433.39V30.2306H267.962V41.3893Z" fill="#7F2794"/>
</svg>
