<svg width="86" height="55" viewBox="0 0 86 55" fill="none" xmlns="http://www.w3.org/2000/svg">
  <path fill-rule="evenodd" clip-rule="evenodd"
        d="M28.5844 34.3596L35.8052 14.8973H31.6035L26.2192 30.3785L20.8054 14.8973H16.5743L23.7951 34.3596H28.5918H28.5844ZM38.4202 16.4301C38.8904 16.8587 39.4707 17.0694 40.1685 17.0694C40.8663 17.0694 41.4393 16.8587 41.8874 16.4301C42.3575 15.987 42.5926 15.4349 42.5926 14.7883C42.5926 14.1417 42.3575 13.5969 41.8874 13.1682C41.4393 12.7251 40.8663 12.4999 40.1685 12.4999C39.4707 12.4999 38.8904 12.7251 38.4202 13.1682C37.9722 13.5969 37.7444 14.1345 37.7444 14.7883C37.7444 15.4421 37.9722 15.987 38.4202 16.4301ZM42.1151 34.3596V18.9074H38.1705V34.3596H42.1151ZM48.5499 33.9383C49.5636 34.3814 50.7095 34.6066 51.9876 34.6066C53.2658 34.6066 54.3088 34.4105 55.227 34.0182C56.1673 33.6113 56.8798 33.052 57.372 32.3473C57.8788 31.6426 58.1359 30.8435 58.1359 29.9499C58.1139 28.9256 57.8348 28.1119 57.2912 27.4944C56.7623 26.8624 56.1379 26.3974 55.4034 26.0996C54.6688 25.8017 53.7432 25.5111 52.612 25.235C51.5028 24.959 50.6875 24.6902 50.1586 24.4287C49.6297 24.1526 49.3726 23.753 49.3726 23.23C49.3726 22.765 49.5636 22.4018 49.9382 22.1402C50.3349 21.8787 50.8858 21.7479 51.5983 21.7479C52.3696 21.7479 52.9793 21.9368 53.4347 22.3073C53.9048 22.6633 54.1693 23.1428 54.2207 23.7603H57.9964C57.8862 22.1984 57.2691 20.9634 56.16 20.048C55.0508 19.1181 53.5669 18.6532 51.7011 18.6532C50.445 18.6532 49.3432 18.8566 48.403 19.2634C47.4848 19.6702 46.7649 20.2296 46.258 20.9343C45.7659 21.639 45.5235 22.4236 45.5235 23.2736C45.5235 24.3124 45.7879 25.1406 46.3095 25.7581C46.853 26.3684 47.4921 26.826 48.2267 27.1239C48.9759 27.4217 49.9382 27.7123 51.1062 27.9884C52.2374 28.2863 53.0527 28.5623 53.5596 28.8238C54.0885 29.0636 54.3456 29.4341 54.3456 29.9426C54.3456 30.4076 54.1325 30.7853 53.6992 31.0832C53.2878 31.3811 52.7002 31.5263 51.9509 31.5263C51.2016 31.5263 50.5332 31.3302 50.0043 30.9379C49.4975 30.5456 49.2036 30.0516 49.1302 29.4632H45.1562C45.215 30.4148 45.5308 31.2793 46.1185 32.0567C46.7208 32.834 47.5288 33.4588 48.5425 33.9237L48.5499 33.9383ZM61.2945 22.4236C60.6775 23.6295 60.3616 25.0171 60.3616 26.579C60.3616 28.141 60.6702 29.5649 61.2945 30.7926C61.9336 31.9986 62.7857 32.943 63.8582 33.6113C64.9453 34.2797 66.15 34.6139 67.4649 34.6139C68.6328 34.6139 69.6539 34.3814 70.5353 33.9165C71.4389 33.4297 72.144 32.8267 72.6509 32.1003V34.3596H76.6249V18.9074H72.6509V21.1086C72.122 20.404 71.4168 19.8155 70.5353 19.3506C69.6686 18.8856 68.6549 18.6532 67.4869 18.6532C66.15 18.6532 64.938 18.9801 63.8508 19.6266C62.7784 20.2805 61.9263 21.2104 61.2872 22.4163L61.2945 22.4236ZM72.0926 24.2107C72.4672 24.8791 72.6582 25.6855 72.6582 26.6371C72.6582 27.5888 72.4672 28.4025 72.0926 29.0926C71.718 29.761 71.2111 30.2841 70.5721 30.6546C69.933 31.0105 69.2499 31.1849 68.5153 31.1849C67.7807 31.1849 67.127 30.996 66.4879 30.6255C65.8709 30.255 65.3567 29.7247 64.9674 29.0345C64.5927 28.3298 64.4017 27.5089 64.4017 26.579C64.4017 25.6491 64.5927 24.85 64.9674 24.1817C65.364 23.4915 65.8709 22.9757 66.4879 22.6197C67.1049 22.2637 67.7881 22.0894 68.5153 22.0894C69.2425 22.0894 69.933 22.2783 70.5721 22.6488C71.2111 23.0048 71.718 23.5206 72.0926 24.2107Z"
        fill="white"/>
  <path d="M12.2771 17.0694C11.5793 17.0694 10.9989 16.8587 10.5288 16.4301C10.0807 15.987 9.85303 15.4421 9.85303 14.7883C9.85303 14.1345 10.0807 13.5969 10.5288 13.1682C10.9989 12.7251 11.5793 12.4999 12.2771 12.4999C12.9749 12.4999 13.5479 12.7251 13.996 13.1682C14.4661 13.5969 14.7011 14.1417 14.7011 14.7883C14.7011 15.4349 14.4661 15.987 13.996 16.4301C13.5479 16.8587 12.9749 17.0694 12.2771 17.0694Z" fill="white"/>
  <path d="M14.2237 18.9074V34.3596H10.2791V18.9074H14.2237Z" fill="white"/>
  <path d="M1.84631 53.2698H37.0906V50.9451H1.84631V53.2698Z" fill="white"/>
  <path d="M50.1586 2.37277H85.0283V0.0480347H50.1586V2.37277Z" fill="white"/>
</svg>
