<svg xmlns="http://www.w3.org/2000/svg" width="82.267" height="20.2" viewBox="0 0 82.267 20.2">
  <g id="prefix__Grupo_2" data-name="Grupo 2" transform="translate(-886.33 -363.137)">
    <g id="prefix__Type" transform="translate(907.938 370.296)">
      <g id="prefix__Grupo_1" data-name="Grupo 1">
        <path id="prefix__Trazado_1" fill="#050309"
              d="M297.607 98.6h8.328v1.554h-3.275v8.735h-1.8v-8.735h-3.26V98.6zm7.973 2.839h1.539v1.438h.029a1.689 1.689 0 0 1 .283-.588 2.617 2.617 0 0 1 .5-.523 2.671 2.671 0 0 1 .653-.385 2 2 0 0 1 .733-.145c.189 0 .327.007.4.015s.145.022.225.029v1.583c-.116-.022-.232-.036-.356-.051a3.012 3.012 0 0 0-.356-.022 1.924 1.924 0 0 0-.784.167 1.807 1.807 0 0 0-.639.486 2.47 2.47 0 0 0-.436.8 3.384 3.384 0 0 0-.16 1.1v3.543h-1.641v-7.442zm11.908 7.45h-1.612v-1.039h-.029a2.239 2.239 0 0 1-.9.9 2.463 2.463 0 0 1-1.22.341 2.732 2.732 0 0 1-2.128-.726 3.212 3.212 0 0 1-.653-2.2v-4.727h1.641v4.567a2.006 2.006 0 0 0 .378 1.387 1.367 1.367 0 0 0 1.053.407 2.019 2.019 0 0 0 .864-.16 1.457 1.457 0 0 0 .559-.428 1.644 1.644 0 0 0 .312-.639 3.146 3.146 0 0 0 .094-.806v-4.32h1.641zm2.8-2.389a1.264 1.264 0 0 0 .545 1.009 2.2 2.2 0 0 0 1.14.29 4.874 4.874 0 0 0 .523-.036 2.2 2.2 0 0 0 .552-.138 1.061 1.061 0 0 0 .428-.3.722.722 0 0 0 .152-.508.7.7 0 0 0-.232-.516 1.636 1.636 0 0 0-.552-.327 5.538 5.538 0 0 0-.77-.211c-.29-.058-.581-.123-.879-.189a8.337 8.337 0 0 1-.886-.247 2.7 2.7 0 0 1-.762-.392 1.725 1.725 0 0 1-.537-.624 1.953 1.953 0 0 1-.2-.944 1.7 1.7 0 0 1 .3-1.017 2.257 2.257 0 0 1 .748-.661 3.466 3.466 0 0 1 1.009-.356 6.145 6.145 0 0 1 1.06-.1 4.942 4.942 0 0 1 1.1.123 2.845 2.845 0 0 1 .951.4 2.352 2.352 0 0 1 .7.712 2.477 2.477 0 0 1 .356 1.06h-1.714a1.022 1.022 0 0 0-.537-.791 2.2 2.2 0 0 0-.973-.2 3.054 3.054 0 0 0-.414.029 2.265 2.265 0 0 0-.45.109.976.976 0 0 0-.356.232.562.562 0 0 0-.145.4.621.621 0 0 0 .211.486 1.76 1.76 0 0 0 .545.312 5.538 5.538 0 0 0 .77.211c.29.058.588.123.893.189s.588.152.879.247a2.652 2.652 0 0 1 .77.392 1.933 1.933 0 0 1 .545.617 1.882 1.882 0 0 1 .211.922 2.006 2.006 0 0 1-.3 1.125 2.414 2.414 0 0 1-.784.748 3.687 3.687 0 0 1-1.075.421 5.392 5.392 0 0 1-1.169.131 4.96 4.96 0 0 1-1.307-.16 3.182 3.182 0 0 1-1.038-.479 2.376 2.376 0 0 1-.69-.806 2.646 2.646 0 0 1-.269-1.147h1.656zm5.417-5.061h1.242V99.2h1.641v2.236h1.481v1.227h-1.481v3.979a4.058 4.058 0 0 0 .022.45.828.828 0 0 0 .1.319.466.466 0 0 0 .24.2 1.17 1.17 0 0 0 .436.065c.116 0 .232 0 .349-.007a1.923 1.923 0 0 0 .349-.051v1.271c-.182.022-.363.036-.53.058a4.247 4.247 0 0 1-.53.029 3.673 3.673 0 0 1-1.046-.123 1.357 1.357 0 0 1-.617-.363 1.26 1.26 0 0 1-.3-.6 4.478 4.478 0 0 1-.094-.82v-4.393h-1.242v-1.242zm5.526 0h1.554v1.009h.029a2.027 2.027 0 0 1 .966-.929 3.182 3.182 0 0 1 1.343-.283 3.477 3.477 0 0 1 1.532.312 2.994 2.994 0 0 1 1.089.85 3.717 3.717 0 0 1 .646 1.263 5.3 5.3 0 0 1 .218 1.539 5.352 5.352 0 0 1-.2 1.452 3.887 3.887 0 0 1-.588 1.249 2.888 2.888 0 0 1-1 .864 2.972 2.972 0 0 1-1.43.327 4.01 4.01 0 0 1-.719-.065 3.165 3.165 0 0 1-.69-.211 2.491 2.491 0 0 1-.61-.37 2.3 2.3 0 0 1-.472-.523h-.029v3.718h-1.641zm5.736 3.732a3.709 3.709 0 0 0-.131-.98 2.644 2.644 0 0 0-.392-.842 2 2 0 0 0-.646-.588 1.995 1.995 0 0 0-2.454.494 3.19 3.19 0 0 0-.523 1.917 3.68 3.68 0 0 0 .138 1.046 2.335 2.335 0 0 0 .414.828 1.96 1.96 0 0 0 .653.545 2.048 2.048 0 0 0 1.837-.029 2.009 2.009 0 0 0 .639-.6 2.473 2.473 0 0 0 .363-.835 4.668 4.668 0 0 0 .097-.956zm2.9-6.571h1.633v1.554h-1.641zm0 2.839h1.633v7.45h-1.641zm3.108-2.839h1.641v10.289h-1.641zm6.673 10.492a4.058 4.058 0 0 1-1.59-.3 3.332 3.332 0 0 1-1.917-2.055 4.794 4.794 0 0 1-.254-1.583 4.737 4.737 0 0 1 .254-1.568 3.542 3.542 0 0 1 .733-1.242 3.344 3.344 0 0 1 1.184-.813 4.4 4.4 0 0 1 3.18 0 3.332 3.332 0 0 1 1.917 2.055 4.736 4.736 0 0 1 .254 1.568 4.792 4.792 0 0 1-.254 1.583 3.541 3.541 0 0 1-.733 1.242 3.344 3.344 0 0 1-1.184.813 4.058 4.058 0 0 1-1.599.3zm0-1.3a1.9 1.9 0 0 0 .951-.232 2.025 2.025 0 0 0 .661-.6 2.706 2.706 0 0 0 .385-.842 3.754 3.754 0 0 0 0-1.91 2.484 2.484 0 0 0-.385-.842 2 2 0 0 0-.661-.6 2.063 2.063 0 0 0-1.9 0 2.085 2.085 0 0 0-.661.6 2.631 2.631 0 0 0-.385.842 3.754 3.754 0 0 0 0 1.91 2.55 2.55 0 0 0 .385.842 2.024 2.024 0 0 0 .661.6 1.83 1.83 0 0 0 .94.232zm4.24-6.353h1.242V99.2h1.641v2.236h1.481v1.227h-1.481v3.979a4.058 4.058 0 0 0 .022.45.828.828 0 0 0 .1.319.466.466 0 0 0 .24.2 1.17 1.17 0 0 0 .436.065c.116 0 .232 0 .349-.007a1.922 1.922 0 0 0 .349-.051v1.271c-.181.022-.363.036-.53.058a4.247 4.247 0 0 1-.53.029 3.672 3.672 0 0 1-1.046-.123 1.357 1.357 0 0 1-.617-.363 1.26 1.26 0 0 1-.3-.6 4.476 4.476 0 0 1-.094-.82v-4.393h-1.242v-1.242z"
              data-name="Trazado 1" transform="translate(-297.6 -98.6)"/>
      </g>
    </g>
    <g id="prefix__Star" transform="translate(886.33 363.137)">
      <path id="prefix__Trazado_2" fill="#050309" d="M19.7 7.159h-7.523L9.853 0 7.522 7.159 0 7.152l6.092 4.429-2.331 7.152 6.092-4.422 6.085 4.422-2.324-7.152L19.7 7.159z" data-name="Trazado 2"/>
      <path id="prefix__Trazado_3" fill="#fff" d="M139.984 161.119l-.523-1.619-3.761 2.73z" data-name="Trazado 3" transform="translate(-125.847 -147.919)"/>
    </g>
  </g>
</svg>
